<?xml version="1.0" encoding="UTF-8"?>
<svg version="1.1" xmlns="http://www.w3.org/2000/svg" width="500" height="500">
<path d="M0 0 C2.73667263 2.48411194 5.42901111 5.0119399 8.09863281 7.56787109 C9.46548889 8.87638024 10.84360855 10.17309604 12.22265625 11.46875 C19.08947008 18.08645229 24.84728308 25.38605405 30.57421875 32.98046875 C31.28578125 33.90859375 31.99734375 34.83671875 32.73046875 35.79296875 C35.67358525 39.71712408 38.39306142 43.49025474 40.50390625 47.92578125 C43.38194475 53.90636528 43.38194475 53.90636528 47.57421875 58.98046875 C51.709745 60.38367155 55.25331403 60.69821892 59.578125 60.828125 C73.39458781 61.35485232 85.30101919 69.80934041 94.54296875 79.5703125 C103.64664934 90.37217966 108.66485959 102.44179124 108.78295898 116.56201172 C108.79274277 117.30917953 108.80252655 118.05634735 108.81260681 118.82615662 C108.84243954 121.29163882 108.86392226 123.75706677 108.8828125 126.22265625 C108.88938433 127.07092106 108.89595615 127.91918587 108.90272713 128.79315567 C108.93528087 133.29079775 108.9597316 137.7884167 108.97924805 142.28613281 C108.9969857 145.98147762 109.03168897 149.67604848 109.08178711 153.37109375 C109.14252061 157.85737714 109.17279636 162.34294936 109.18242073 166.82962418 C109.19089273 168.52545587 109.209502 170.22127288 109.23916435 171.9168663 C109.46257819 185.4243247 106.71560671 194.89600063 100.57421875 206.98046875 C99.91421875 206.98046875 99.25421875 206.98046875 98.57421875 206.98046875 C98.20103516 208.08261719 98.20103516 208.08261719 97.8203125 209.20703125 C93.57778635 218.64964432 82.59623475 225.54281437 73.3125 229.30078125 C65.54515406 231.98046875 65.54515406 231.98046875 61.57421875 231.98046875 C61.32671875 232.92921875 61.07921875 233.87796875 60.82421875 234.85546875 C49.54956418 273.69897045 19.80075324 310.39735161 -12.42578125 333.98046875 C-13.4725 334.74875 -14.51921875 335.51703125 -15.59765625 336.30859375 C-38.13982203 352.34605498 -65.50502143 367.8781621 -93.42578125 370.98046875 C-93.53792969 371.53347656 -93.65007812 372.08648437 -93.765625 372.65625 C-96.97363042 383.95070696 -105.3034254 393.59254024 -115.125 399.69921875 C-127.57071224 406.62993796 -142.97363889 408.64006237 -156.92578125 404.91796875 C-171.57953437 399.3936335 -181.20718487 390.41484554 -187.65234375 376.29296875 C-192.84482885 363.74135009 -193.2075373 349.7919661 -188.42578125 336.98046875 C-181.61663801 322.59854003 -170.29102836 313.11302272 -155.48828125 307.48046875 C-143.46794667 303.91712846 -130.64696093 305.56218789 -119.30078125 310.66796875 C-110.64025634 315.42135456 -104.04843971 321.93746062 -98.42578125 329.98046875 C-63.5688962 325.77459667 -28.10216976 298.55682378 -6.30078125 272.16796875 C23.90159014 232.81147655 36.94069186 186.1736849 30.57421875 136.98046875 C25.16009285 99.67720824 7.82440346 66.46302823 -18.11865234 39.35058594 C-19.18722919 38.23051622 -20.24043146 37.0957962 -21.2890625 35.95703125 C-30.99153348 25.70082124 -43.33675243 18.0819232 -55.42578125 10.98046875 C-56.05242676 10.61147461 -56.67907227 10.24248047 -57.32470703 9.86230469 C-66.96035449 4.26708534 -76.83583379 0.38252827 -87.42578125 -3.01953125 C-88.6065625 -3.41140625 -89.78734375 -3.80328125 -91.00390625 -4.20703125 C-97.75855566 -6.38388509 -104.40020355 -8.02601521 -111.42578125 -9.01953125 C-113.3284375 -9.29796875 -113.3284375 -9.29796875 -115.26953125 -9.58203125 C-163.21576777 -16.04334163 -208.51237031 -4.65478797 -247.42578125 23.98046875 C-248.30105469 24.61082031 -249.17632812 25.24117188 -250.078125 25.890625 C-266.16660618 38.07075634 -279.36965166 53.68044651 -289.62890625 70.95703125 C-290.7046746 72.76712844 -291.81008159 74.56080107 -292.97265625 76.31640625 C-298.53819386 84.84424613 -301.8515357 94.499184 -305.42578125 103.98046875 C-305.84085937 105.05554688 -306.2559375 106.130625 -306.68359375 107.23828125 C-311.79432688 121.36322083 -314.53925857 137.21261727 -314.62890625 152.22265625 C-314.63460632 152.98990021 -314.6403064 153.75714417 -314.6461792 154.54763794 C-314.6555685 156.166185 -314.66213881 157.78475066 -314.66601562 159.40332031 C-314.67561936 161.81481811 -314.70665771 164.22542386 -314.73828125 166.63671875 C-314.84217956 181.69475175 -312.6125147 195.99642342 -308.48828125 210.48046875 C-308.24916016 211.36476563 -308.01003906 212.2490625 -307.76367188 213.16015625 C-306.25299416 218.59700164 -304.39652884 223.77159705 -302.19311523 228.96679688 C-301.42578125 230.98046875 -301.42578125 230.98046875 -301.42578125 232.98046875 C-307.18747198 233.05531086 -312.94887209 233.10939424 -318.7109375 233.14526367 C-320.66606585 233.16023625 -322.62116128 233.18062156 -324.57617188 233.20678711 C-344.14843019 233.46194692 -360.1774689 231.16294623 -374.86328125 217.16796875 C-385.42863145 205.82192765 -391.52550783 192.81069243 -391.61865234 177.25952148 C-391.62682983 176.49778122 -391.63500732 175.73604095 -391.64343262 174.95121765 C-391.66817156 172.43884033 -391.68477682 169.92651925 -391.69921875 167.4140625 C-391.70454243 166.55102068 -391.7098661 165.68797886 -391.7153511 164.79878426 C-391.74203822 160.22678645 -391.76142359 155.65481548 -391.77587891 151.08276367 C-391.78918787 147.31851744 -391.81699039 143.55481717 -391.85791016 139.79077148 C-391.90751271 135.22672389 -391.93203365 130.66316917 -391.93910599 126.0988636 C-391.94577372 124.36987991 -391.9608773 122.64090526 -391.9849968 120.91207695 C-392.19636587 104.83941707 -388.01246966 90.90997621 -377.0859375 78.54296875 C-367.34327215 69.37340136 -355.03935574 60.91681556 -341.31079102 60.90893555 C-334.56928444 60.78829031 -334.56928444 60.78829031 -328.92480469 57.53369141 C-326.20750014 53.67731476 -324.38812715 49.36488065 -322.46044922 45.07714844 C-320.86558456 41.84527075 -318.79592661 39.09820738 -316.55078125 36.29296875 C-315.92055054 35.50188721 -315.92055054 35.50188721 -315.27758789 34.69482422 C-314.42497105 33.63737791 -313.56714207 32.58411252 -312.70410156 31.53515625 C-311.44835875 30.0079274 -310.21417293 28.46305514 -308.98046875 26.91796875 C-293.11872479 7.33636715 -274.61577523 -8.55524408 -253.42578125 -22.01953125 C-252.48863281 -22.6228125 -251.55148438 -23.22609375 -250.5859375 -23.84765625 C-235.31266517 -33.2263658 -218.49228555 -39.75735909 -201.42578125 -45.01953125 C-200.47832031 -45.35984375 -199.53085938 -45.70015625 -198.5546875 -46.05078125 C-131.49484135 -66.81338031 -51.60428045 -46.03344799 0 0 Z " fill="#FEFEFE" transform="translate(391.42578125,73.01953125)"/>
<path d="M0 0 C3.60637799 3.09612575 7.02876641 6.3493821 10.41308594 9.68603516 C11.20457031 10.46462891 11.99605469 11.24322266 12.81152344 12.04541016 C27.43352146 27.33437651 36.42912348 47.35373378 41.41308594 67.68603516 C41.66058594 68.69279297 41.90808594 69.69955078 42.16308594 70.73681641 C48.23295795 101.88706237 40.42848267 133.31504805 23.51074219 159.64697266 C3.57946153 188.09693974 -24.66797268 205.11507061 -58.53053284 211.21641541 C-64.06364164 211.98682334 -69.64774214 211.86418698 -75.22338867 211.89135742 C-76.48262146 211.90125702 -77.74185425 211.91115662 -79.03924561 211.9213562 C-82.47465204 211.94825747 -85.910072 211.96934646 -89.34552455 211.98935819 C-92.94233425 212.01130954 -96.53910296 212.03865323 -100.13587952 212.06541443 C-106.93903122 212.11521814 -113.74220583 212.16020238 -120.54540211 212.20343679 C-128.29393259 212.25291485 -136.0424219 212.3077936 -143.79091251 212.36311638 C-159.72287494 212.47674714 -175.6548753 212.58362692 -191.58691406 212.68603516 C-191.58691406 211.36603516 -191.58691406 210.04603516 -191.58691406 208.68603516 C-189.67285156 207.18603516 -189.67285156 207.18603516 -186.96191406 205.68603516 C-180.01994538 201.52981132 -174.19073033 196.4139708 -168.16259766 191.06494141 C-166.77209921 189.84809368 -165.34781749 188.67008482 -163.91894531 187.49853516 C-163.190625 186.90041016 -162.46230469 186.30228516 -161.71191406 185.68603516 C-161.09574219 185.19103516 -160.47957031 184.69603516 -159.84472656 184.18603516 C-158.15855627 182.50146072 -158.15855627 182.50146072 -158.58691406 178.68603516 C-160.19527846 176.78115789 -160.19527846 176.78115789 -162.39941406 174.93603516 C-176.82549541 161.07701676 -186.30319881 141.77946073 -191.58691406 122.68603516 C-191.90660156 121.53876953 -192.22628906 120.39150391 -192.55566406 119.20947266 C-197.05240797 99.76521893 -196.4177197 77.76460992 -190.58691406 58.68603516 C-190.3779248 57.99799805 -190.16893555 57.30996094 -189.95361328 56.60107422 C-185.48817879 42.46554899 -178.35056902 28.88057058 -168.58691406 17.68603516 C-167.86503906 16.85587891 -167.14316406 16.02572266 -166.39941406 15.17041016 C-164.16059423 12.64417426 -161.88309471 10.16011809 -159.58691406 7.68603516 C-158.77673828 6.77724609 -158.77673828 6.77724609 -157.95019531 5.85009766 C-144.09911251 -9.01277708 -124.77821496 -17.83264124 -105.58691406 -23.31396484 C-104.44609375 -23.65556641 -103.30527344 -23.99716797 -102.12988281 -24.34912109 C-67.22137205 -33.08640842 -27.46220416 -22.73870504 0 0 Z " fill="#EFD505" transform="translate(325.5869140625,142.31396484375)"/>
<path d="M0 0 C0.33 0.66 0.66 1.32 1 2 C0.51789063 2.30292969 0.03578125 2.60585938 -0.4609375 2.91796875 C-4.40917198 5.5366957 -6.68130637 7.25270293 -8 12 C-9 13 -9 13 -12.0625 13.0625 C-13.031875 13.041875 -14.00125 13.02125 -15 13 C-15 14.32 -15 15.64 -15 17 C0.69961929 16.89243889 16.39919162 16.77962201 32.09872818 16.66066074 C39.38937114 16.60553746 46.68001899 16.55209149 53.97070312 16.50268555 C60.33013604 16.45958595 66.68953597 16.41324613 73.04891753 16.36312145 C76.41171684 16.33672619 79.7745 16.3123651 83.13733673 16.29092598 C86.904429 16.26663405 90.67143681 16.23661584 94.43847656 16.20532227 C95.53612335 16.1995668 96.63377014 16.19381134 97.76467896 16.18788147 C104.88319936 16.12107382 111.91463924 15.68644728 119 15 C111.66095476 18.88887248 103.47474349 18.16579583 95.36352539 18.20532227 C94.1042926 18.21522186 92.84505981 18.22512146 91.54766846 18.23532104 C88.11226202 18.26222231 84.67684206 18.2833113 81.24138951 18.30332303 C77.64457981 18.32527439 74.0478111 18.35261807 70.45103455 18.37937927 C63.64788284 18.42918298 56.84470823 18.47416723 50.04151195 18.51740164 C42.29298148 18.5668797 34.54449216 18.62175844 26.79600155 18.67708123 C10.86403912 18.79071198 -5.06796124 18.89759177 -21 19 C-21 17.68 -21 16.36 -21 15 C-18.9453125 13.359375 -18.9453125 13.359375 -16.125 11.75 C-10.3294228 8.28468082 -5.17633475 4.32296937 0 0 Z " fill="#D4BE30" transform="translate(155,336)"/>
<path d="M0 0 C0.33 0.66 0.66 1.32 1 2 C0.51789063 2.30292969 0.03578125 2.60585938 -0.4609375 2.91796875 C-4.40917198 5.5366957 -6.68130637 7.25270293 -8 12 C-9 13 -9 13 -12.0625 13.0625 C-13.031875 13.041875 -14.00125 13.02125 -15 13 C-15.33 14.65 -15.66 16.3 -16 18 C-17.65 18.33 -19.3 18.66 -21 19 C-21 17.68 -21 16.36 -21 15 C-18.9453125 13.359375 -18.9453125 13.359375 -16.125 11.75 C-10.3294228 8.28468082 -5.17633475 4.32296937 0 0 Z " fill="#E7D228" transform="translate(155,336)"/>
<path d="M0 0 C1.28326172 0.00064453 2.56652344 0.00128906 3.88867188 0.00195312 C9.4530737 0.02799557 14.70662974 0.1520581 20.1875 1.1875 C20.1875 1.8475 20.1875 2.5075 20.1875 3.1875 C13.5625 3.3125 13.5625 3.3125 10.1875 2.1875 C8.65191234 2.09456161 7.11261483 2.05681173 5.57421875 2.0546875 C4.66172363 2.05275391 3.74922852 2.05082031 2.80908203 2.04882812 C1.35671143 2.0555957 1.35671143 2.0555957 -0.125 2.0625 C-1.60057373 2.06540039 -1.60057373 2.06540039 -3.10595703 2.06835938 C-10.71230221 2.11316848 -18.23780738 2.46363859 -25.8125 3.1875 C-25.8125 2.8575 -25.8125 2.5275 -25.8125 2.1875 C-17.1611766 0.2103427 -8.85047074 -0.08575163 0 0 Z " fill="#E1C939" transform="translate(249.8125,115.8125)"/>
<path d="M0 0 C0.66 0.33 1.32 0.66 2 1 C-0.40768703 3.79163712 -2.76146616 4.89717557 -6.1875 6.1875 C-7.08855469 6.53167969 -7.98960937 6.87585938 -8.91796875 7.23046875 C-9.60503906 7.48441406 -10.29210937 7.73835937 -11 8 C-11 8.66 -11 9.32 -11 10 C-15.455 10.495 -15.455 10.495 -20 11 C-16.86382753 7.44772602 -13.75142779 5.72162163 -9.4375 3.8125 C-8.30183594 3.30332031 -7.16617188 2.79414062 -5.99609375 2.26953125 C-3 1 -3 1 0 0 Z " fill="#E3D030" transform="translate(208,123)"/>
<path d="M0 0 C1.35439668 2.70879335 1.06501451 5.00933268 1 8 C0.39671875 8.21398437 -0.2065625 8.42796875 -0.828125 8.6484375 C-3.78443172 10.48815355 -4.41832346 12.44377271 -5.75 15.625 C-6.17796875 16.62789062 -6.6059375 17.63078125 -7.046875 18.6640625 C-7.36140625 19.43492187 -7.6759375 20.20578125 -8 21 C-8.66 21 -9.32 21 -10 21 C-7.80144982 13.24041115 -4.22754377 6.84514622 0 0 Z " fill="#E2CE31" transform="translate(149,171)"/>
<path d="M0 0 C0.99 0.33 1.98 0.66 3 1 C-1.10037573 6.24972347 -5.52964787 10.20962911 -11 14 C-11.33 13.01 -11.66 12.02 -12 11 C-11.01 11 -10.02 11 -9 11 C-9 10.34 -9 9.68 -9 9 C-8.01 9 -7.02 9 -6 9 C-5.814375 7.2984375 -5.814375 7.2984375 -5.625 5.5625 C-5.41875 4.386875 -5.2125 3.21125 -5 2 C-4.34 1.67 -3.68 1.34 -3 1 C-3 1.66 -3 2.32 -3 3 C-2.01 3 -1.02 3 0 3 C0 2.01 0 1.02 0 0 Z " fill="#E4CE27" transform="translate(335,314)"/>
<path d="M0 0 C2.475 0.99 2.475 0.99 5 2 C5 6 5 6 3.0625 8.125 C2.381875 8.74375 1.70125 9.3625 1 10 C0.67 10.66 0.34 11.32 0 12 C-0.99 12 -1.98 12 -3 12 C-3 12.66 -3 13.32 -3 14 C-5.375 15.6875 -5.375 15.6875 -8 17 C-8.66 16.67 -9.32 16.34 -10 16 C-6.04 12.37 -2.08 8.74 2 5 C1.34 3.35 0.68 1.7 0 0 Z " fill="#E1CE31" transform="translate(166,319)"/>
<path d="M0 0 C0.99 0.33 1.98 0.66 3 1 C4.32816109 4.14308279 3.87284094 6.50863624 3.0625 9.75 C2.86785156 10.54921875 2.67320312 11.3484375 2.47265625 12.171875 C2.23869141 13.07679688 2.23869141 13.07679688 2 14 C1.67 14 1.34 14 1 14 C1 12.02 1 10.04 1 8 C-0.65 8.66 -2.3 9.32 -4 10 C-3.34 8.35 -2.68 6.7 -2 5 C-1.34 5 -0.68 5 0 5 C0 3.35 0 1.7 0 0 Z " fill="#EAD119" transform="translate(364,250)"/>
<path d="M0 0 C1.32 0.33 2.64 0.66 4 1 C4 1.99 4 2.98 4 4 C4.66 4 5.32 4 6 4 C6.226875 4.61875 6.45375 5.2375 6.6875 5.875 C8.37929835 8.61410209 9.99244161 9.05024472 13 10 C13 11.65 13 13.3 13 15 C7.3750207 10.61251614 3.69379408 6.08867157 0 0 Z " fill="#E1D02C" transform="translate(153,304)"/>
<path d="M0 0 C1.31246762 3.67314762 0.67633026 6.22118533 -0.3125 9.9375 C-0.70888672 11.46697266 -0.70888672 11.46697266 -1.11328125 13.02734375 C-1.93057879 15.76727073 -2.88964872 18.36715831 -4 21 C-4.33 21 -4.66 21 -5 21 C-4.5003731 13.50559651 -2.56235522 7.04349737 0 0 Z " fill="#E1CE39" transform="translate(138,193)"/>
<path d="M0 0 C0 0.66 0 1.32 0 2 C-0.99 2.66 -1.98 3.32 -3 4 C-3.433125 4.9590625 -3.433125 4.9590625 -3.875 5.9375 C-5.37960621 8.69594472 -7.29216784 9.4809722 -10 11 C-11.75149165 12.58245275 -11.75149165 12.58245275 -13 14 C-13.66 13.67 -14.32 13.34 -15 13 C-12.88094537 10.82722286 -10.75527122 8.66173092 -8.625 6.5 C-8.02171875 5.87996094 -7.4184375 5.25992188 -6.796875 4.62109375 C-6.21679688 4.03457031 -5.63671875 3.44804687 -5.0390625 2.84375 C-4.50490723 2.29912109 -3.97075195 1.75449219 -3.42041016 1.19335938 C-2 0 -2 0 0 0 Z " fill="#E0CF36" transform="translate(175,143)"/>
<path d="M0 0 C1.72251754 4.0845326 0.07280563 7.36973696 -1.4375 11.25 C-1.68048828 11.8996875 -1.92347656 12.549375 -2.17382812 13.21875 C-2.77285994 14.81616817 -3.38514321 16.40860594 -4 18 C-5.50415346 13.48753962 -5.01898294 9.20365417 -3.0390625 4.921875 C-2.08022326 3.24900653 -1.04608436 1.61974353 0 0 Z " fill="#DFCC33" transform="translate(364,264)"/>
<path d="M0 0 C3.9252025 3.70090521 6.94580156 7.54959656 10 12 C9.67 12.66 9.34 13.32 9 14 C8.01 13.34 7.02 12.68 6 12 C6 11.01 6 10.02 6 9 C4.68 8.67 3.36 8.34 2 8 C2 6.68 2 5.36 2 4 C1.34 4 0.68 4 0 4 C0 2.68 0 1.36 0 0 Z " fill="#E2CF32" transform="translate(339,156)"/>
<path d="M0 0 C2.15377564 2.62198774 3.40072174 4.64404172 4 8 C3.34 8 2.68 8 2 8 C1.67 8.66 1.34 9.32 1 10 C1 9.34 1 8.68 1 8 C0.34 8 -0.32 8 -1 8 C-0.67 5.36 -0.34 2.72 0 0 Z " fill="#E8D11F" transform="translate(355,180)"/>
<path d="M0 0 C2.625 0.9375 2.625 0.9375 5 2 C5 1.34 5 0.68 5 0 C6.65 0 8.3 0 10 0 C7.12835434 2.70272533 5.69008159 3.94791837 1.6875 4.25 C0.800625 4.1675 -0.08625 4.085 -1 4 C-1.33 3.01 -1.66 2.02 -2 1 C-1.34 0.67 -0.68 0.34 0 0 Z " fill="#EBD320" transform="translate(301,337)"/>
<path d="M0 0 C0.66 0 1.32 0 2 0 C2.66 2.31 3.32 4.62 4 7 C4.66 7 5.32 7 6 7 C5.67 8.32 5.34 9.64 5 11 C0 4.63636364 0 4.63636364 0 0 Z " fill="#E4D035" transform="translate(141,282)"/>
<path d="M0 0 C2.46800047 1.15173355 4.04783565 2.04783565 6 4 C4.865625 4.12375 3.73125 4.2475 2.5625 4.375 C0.7990625 4.684375 0.7990625 4.684375 -1 5 C-1.33 5.66 -1.66 6.32 -2 7 C-2 3.89448334 -1.4606285 2.64738916 0 0 Z " fill="#E6D01E" transform="translate(317,137)"/>
<path d="M0 0 C-5.00932754 3.00559652 -8.32723489 3.29341888 -14 3 C-9.7368213 0.15788087 -5.03577274 -2.0143091 0 0 Z " fill="#E1D437" transform="translate(224,120)"/>
<path d="M0 0 C1 3 1 3 0.3125 5.125 C-1 7 -1 7 -3.125 7.75 C-4.053125 7.87375 -4.053125 7.87375 -5 8 C-3.62845496 5.04590299 -2.01136276 2.55991624 0 0 Z " fill="#E0D133" transform="translate(159,157)"/>
<path d="M0 0 C0.33 0.99 0.66 1.98 1 3 C-3.455 3.495 -3.455 3.495 -8 4 C-4.5 0 -4.5 0 0 0 Z " fill="#E6D61D" transform="translate(196,130)"/>
<path d="M0 0 C0.66 0.33 1.32 0.66 2 1 C1.67 1.66 1.34 2.32 1 3 C1.66 3.33 2.32 3.66 3 4 C1.35 4.33 -0.3 4.66 -2 5 C-2 3.68 -2 2.36 -2 1 C-1.34 0.67 -0.68 0.34 0 0 Z " fill="#DBCC3F" transform="translate(136,350)"/>
</svg>
